<svg xmlns="http://www.w3.org/2000/svg" width="1500" height="8137"><rect width="100%" height="100%" fill="#10151d"/><defs><marker id="arrow" markerWidth="8" markerHeight="8" refX="7" refY="4" orient="auto"><path d="M0 0L8 4L0 8Z" fill="context-stroke"/></marker></defs><text x="30" y="30" fill="#e0e9f6">0x53d24 _ZN11g_momonados19ququart_folded_work23QuquartFoldedWorkDevice23require_clean_workspace17h554b70867ace3b5eE</text><g id="b53d24"><rect x="220" y="70" width="900" height="261" rx="6" fill="#1c293a" stroke="#688ab4"/><text x="235" y="92" fill="#8fceff">block 0x53d24</text><text x="235" y="113" font-size="12" fill="#e0e9f6"><title>r:rbp</title>0x53d24  ⋈  push  r:rbp</text><text x="235" y="131" font-size="12" fill="#e0e9f6"><title>r:r15</title>0x53d25  ⋈  push  r:r15</text><text x="235" y="149" font-size="12" fill="#e0e9f6"><title>r:r14</title>0x53d27  ⋈  push  r:r14</text><text x="235" y="167" font-size="12" fill="#e0e9f6"><title>r:r13</title>0x53d29  ⋈  push  r:r13</text><text x="235" y="185" font-size="12" fill="#e0e9f6"><title>r:r12</title>0x53d2b  ⋈  push  r:r12</text><text x="235" y="203" font-size="12" fill="#e0e9f6"><title>r:rbx</title>0x53d2d  ⋈  push  r:rbx</text><text x="235" y="221" font-size="12" fill="#e0e9f6"><title>r:rsp i:0xb8</title>0x53d2e  ⊞  sub  r:rsp i:0xb8</text><text x="235" y="239" font-size="12" fill="#e0e9f6"><title>r:r14 r:rsi</title>0x53d35  ⋈  mov  r:r14 r:rsi</text><text x="235" y="257" font-size="12" fill="#e0e9f6"><title>r:eax r:eax</title>0x53d38  ⊞  xor  r:eax r:eax</text><text x="235" y="275" font-size="12" fill="#e0e9f6"><title>r:rax m:rsi::1:0x128:8</title>0x53d3a  ⊤  cmp  r:rax m:rsi::1:0x128:8</text><text x="235" y="293" font-size="12" fill="#e0e9f6"><title>m:rsp::1:0x0:8 r:rdi</title>0x53d41  ⋈  mov  m:rsp::1:0x0:8 r:rdi</text><text x="235" y="311" font-size="12" fill="#e0e9f6"><title>i:0x53d70</title>0x53d45  ∈  jno  i:0x53d70</text></g><g id="b53d47"><rect x="220" y="381" width="900" height="99" rx="6" fill="#1c293a" stroke="#688ab4"/><text x="235" y="403" fill="#8fceff">block 0x53d47</text><text x="235" y="424" font-size="12" fill="#e0e9f6"><title>r:r15d i:0x2</title>0x53d47  ⋈  mov  r:r15d i:0x2</text><text x="235" y="442" font-size="12" fill="#e0e9f6"><title>m:r14::1:0x130:1 i:0x0</title>0x53d4d  ⊤  cmp  m:r14::1:0x130:1 i:0x0</text><text x="235" y="460" font-size="12" fill="#e0e9f6"><title>i:0x53dba</title>0x53d55  ∈  je  i:0x53dba</text></g><g id="b53d57"><rect x="220" y="530" width="900" height="135" rx="6" fill="#1c293a" stroke="#688ab4"/><text x="235" y="552" fill="#8fceff">block 0x53d57</text><text x="235" y="573" font-size="12" fill="#e0e9f6"><title>r:ecx i:0x7f</title>0x53d57  ⋈  mov  r:ecx i:0x7f</text><text x="235" y="591" font-size="12" fill="#e0e9f6"><title>r:rcx m:r14::1:0x138:8</title>0x53d5c  ⊞  bsr  r:rcx m:r14::1:0x138:8</text><text x="235" y="609" font-size="12" fill="#e0e9f6"><title>r:rcx i:0x3f</title>0x53d64  ⊞  xor  r:rcx i:0x3f</text><text x="235" y="627" font-size="12" fill="#e0e9f6"><title>r:r15d i:0x40</title>0x53d68  ⋈  mov  r:r15d i:0x40</text><text x="235" y="645" font-size="12" fill="#e0e9f6"><title>i:0x53db3</title>0x53d6e  ≺  jmp  i:0x53db3</text></g><g id="b53d70"><rect x="220" y="715" width="900" height="225" rx="6" fill="#1c293a" stroke="#688ab4"/><text x="235" y="737" fill="#8fceff">block 0x53d70</text><text x="235" y="758" font-size="12" fill="#e0e9f6"><title>r:rax m:r14::1:0x138:8</title>0x53d70  ⋈  mov  r:rax m:r14::1:0x138:8</text><text x="235" y="776" font-size="12" fill="#e0e9f6"><title>r:rax r:rax</title>0x53d77  ⊤  test  r:rax r:rax</text><text x="235" y="794" font-size="12" fill="#e0e9f6"><title>r:cl</title>0x53d7a  ⊥  sete  r:cl</text><text x="235" y="812" font-size="12" fill="#e0e9f6"><title>r:rdx m::rax:8:0x0:8</title>0x53d7d  ⊞  lea  r:rdx m::rax:8:0x0:8</text><text x="235" y="830" font-size="12" fill="#e0e9f6"><title>r:rdx m:r14::1:0x130:8</title>0x53d85  ⊞  add  r:rdx m:r14::1:0x130:8</text><text x="235" y="848" font-size="12" fill="#e0e9f6"><title>r:rdx i:-0x8</title>0x53d8c  ⊞  add  r:rdx i:-0x8</text><text x="235" y="866" font-size="12" fill="#e0e9f6"><title>r:sil</title>0x53d90  ⊥  sete  r:sil</text><text x="235" y="884" font-size="12" fill="#e0e9f6"><title>r:sil r:cl</title>0x53d94  ⊞  or  r:sil r:cl</text><text x="235" y="902" font-size="12" fill="#e0e9f6"><title>r:r15d i:0x2</title>0x53d97  ⋈  mov  r:r15d i:0x2</text><text x="235" y="920" font-size="12" fill="#e0e9f6"><title>i:0x53dba</title>0x53d9d  ∈  jne  i:0x53dba</text></g><g id="b53d9f"><rect x="220" y="990" width="900" height="135" rx="6" fill="#1c293a" stroke="#688ab4"/><text x="235" y="1012" fill="#8fceff">block 0x53d9f</text><text x="235" y="1033" font-size="12" fill="#e0e9f6"><title>r:ecx i:0x7f</title>0x53d9f  ⋈  mov  r:ecx i:0x7f</text><text x="235" y="1051" font-size="12" fill="#e0e9f6"><title>r:rcx m:rdx::1:0x0:8</title>0x53da4  ⊞  bsr  r:rcx m:rdx::1:0x0:8</text><text x="235" y="1069" font-size="12" fill="#e0e9f6"><title>r:rcx i:0x3f</title>0x53da8  ⊞  xor  r:rcx i:0x3f</text><text x="235" y="1087" font-size="12" fill="#e0e9f6"><title>r:rax i:0x6</title>0x53dac  ⊞  shl  r:rax i:0x6</text><text x="235" y="1105" font-size="12" fill="#e0e9f6"><title>r:r15 r:rax</title>0x53db0  ⋈  mov  r:r15 r:rax</text></g><g id="b53db3"><rect x="220" y="1175" width="900" height="81" rx="6" fill="#1c293a" stroke="#688ab4"/><text x="235" y="1197" fill="#8fceff">block 0x53db3</text><text x="235" y="1218" font-size="12" fill="#e0e9f6"><title>r:r15 r:rcx</title>0x53db3  ⊞  sub  r:r15 r:rcx</text><text x="235" y="1236" font-size="12" fill="#e0e9f6"><title>r:r15 i:0x2</title>0x53db6  ⊞  add  r:r15 i:0x2</text></g><g id="b53dba"><rect x="220" y="1306" width="900" height="189" rx="6" fill="#1c293a" stroke="#688ab4"/><text x="235" y="1328" fill="#8fceff">block 0x53dba</text><text x="235" y="1349" font-size="12" fill="#e0e9f6"><title>r:rbx m:r14::1:0x108:8</title>0x53dba  ⋈  mov  r:rbx m:r14::1:0x108:8</text><text x="235" y="1367" font-size="12" fill="#e0e9f6"><title>r:rbx i:0x2</title>0x53dc1  ⊞  add  r:rbx i:0x2</text><text x="235" y="1385" font-size="12" fill="#e0e9f6"><title>r:rax m:r14::1:0x50:8</title>0x53dc5  ⋈  mov  r:rax m:r14::1:0x50:8</text><text x="235" y="1403" font-size="12" fill="#e0e9f6"><title>m:rsp::1:0x18:8 r:rax</title>0x53dc9  ⋈  mov  m:rsp::1:0x18:8 r:rax</text><text x="235" y="1421" font-size="12" fill="#e0e9f6"><title>r:r12 m:r14::1:0x58:8</title>0x53dce  ⋈  mov  r:r12 m:r14::1:0x58:8</text><text x="235" y="1439" font-size="12" fill="#e0e9f6"><title>r:eax i:0x17f0</title>0x53dd2  ⋈  mov  r:eax i:0x17f0</text><text x="235" y="1457" font-size="12" fill="#e0e9f6"><title>r:ecx r:ecx</title>0x53dd7  ⊞  xor  r:ecx r:ecx</text><text x="235" y="1475" font-size="12" fill="#e0e9f6"><title>m:rsp::1:0x8:8 r:r15</title>0x53dd9  ⋈  mov  m:rsp::1:0x8:8 r:r15</text></g><g id="b53dde"><rect x="220" y="1545" width="900" height="225" rx="6" fill="#1c293a" stroke="#688ab4"/><text x="235" y="1567" fill="#8fceff">block 0x53dde</text><text x="235" y="1588" font-size="12" fill="#e0e9f6"><title>m:rsp::1:0x10:8 r:rcx</title>0x53dde  ⋈  mov  m:rsp::1:0x10:8 r:rcx</text><text x="235" y="1606" font-size="12" fill="#e0e9f6"><title>r:rcx</title>0x53de3  ⊞  inc  r:rcx</text><text x="235" y="1624" font-size="12" fill="#e0e9f6"><title>m:rsp::1:0x20:8 r:rcx</title>0x53de6  ⋈  mov  m:rsp::1:0x20:8 r:rcx</text><text x="235" y="1642" font-size="12" fill="#e0e9f6"><title>r:r13 m:r14:rax:1:0x0:8</title>0x53deb  ⋈  mov  r:r13 m:r14:rax:1:0x0:8</text><text x="235" y="1660" font-size="12" fill="#e0e9f6"><title>r:rax i:0x8</title>0x53def  ⊞  add  r:rax i:0x8</text><text x="235" y="1678" font-size="12" fill="#e0e9f6"><title>m:rsp::1:0x28:8 r:rax</title>0x53df3  ⋈  mov  m:rsp::1:0x28:8 r:rax</text><text x="235" y="1696" font-size="12" fill="#e0e9f6"><title>r:rax m::r13:2:0x0:8</title>0x53df8  ⊞  lea  r:rax m::r13:2:0x0:8</text><text x="235" y="1714" font-size="12" fill="#e0e9f6"><title>r:rax r:r13</title>0x53e00  ⊞  add  r:rax r:r13</text><text x="235" y="1732" font-size="12" fill="#e0e9f6"><title>r:rcx m:rsp::1:0x18:8</title>0x53e03  ⋈  mov  r:rcx m:rsp::1:0x18:8</text><text x="235" y="1750" font-size="12" fill="#e0e9f6"><title>r:rbp m:rcx:rax:8:0x0:8</title>0x53e08  ⊞  lea  r:rbp m:rcx:rax:8:0x0:8</text></g><g id="b53e0c"><rect x="220" y="1820" width="900" height="81" rx="6" fill="#1c293a" stroke="#688ab4"/><text x="235" y="1842" fill="#8fceff">block 0x53e0c</text><text x="235" y="1863" font-size="12" fill="#e0e9f6"><title>r:r15 r:rbx</title>0x53e0c  ⊤  cmp  r:r15 r:rbx</text><text x="235" y="1881" font-size="12" fill="#e0e9f6"><title>i:0x53e7a</title>0x53e0f  ∈  jae  i:0x53e7a</text></g><g id="b53e11"><rect x="220" y="1951" width="900" height="99" rx="6" fill="#1c293a" stroke="#688ab4"/><text x="235" y="1973" fill="#8fceff">block 0x53e11</text><text x="235" y="1994" font-size="12" fill="#e0e9f6"><title>r:rdi r:r14</title>0x53e11  ⋈  mov  r:rdi r:r14</text><text x="235" y="2012" font-size="12" fill="#e0e9f6"><title>r:rsi r:r15</title>0x53e14  ⋈  mov  r:rsi r:r15</text><text x="235" y="2030" font-size="12" fill="#e0e9f6"><title>i:0x55207</title>0x53e17  ≻  call  i:0x55207</text></g><g id="b53e1c"><rect x="220" y="2100" width="900" height="81" rx="6" fill="#1c293a" stroke="#688ab4"/><text x="235" y="2122" fill="#8fceff">block 0x53e1c</text><text x="235" y="2143" font-size="12" fill="#e0e9f6"><title>r:r13 r:r12</title>0x53e1c  ⊤  cmp  r:r13 r:r12</text><text x="235" y="2161" font-size="12" fill="#e0e9f6"><title>i:0x54050</title>0x53e1f  ∈  jae  i:0x54050</text></g><g id="b53e25"><rect x="220" y="2231" width="900" height="81" rx="6" fill="#1c293a" stroke="#688ab4"/><text x="235" y="2253" fill="#8fceff">block 0x53e25</text><text x="235" y="2274" font-size="12" fill="#e0e9f6"><title>m:rbp::1:0x10:1 i:0x0</title>0x53e25  ⊤  cmp  m:rbp::1:0x10:1 i:0x0</text><text x="235" y="2292" font-size="12" fill="#e0e9f6"><title>i:0x53e75</title>0x53e29  ∈  jne  i:0x53e75</text></g><g id="b53e2b"><rect x="220" y="2362" width="900" height="117" rx="6" fill="#1c293a" stroke="#688ab4"/><text x="235" y="2384" fill="#8fceff">block 0x53e2b</text><text x="235" y="2405" font-size="12" fill="#e0e9f6"><title>r:rdx m:rbp::1:0x0:8</title>0x53e2b  ⋈  mov  r:rdx m:rbp::1:0x0:8</text><text x="235" y="2423" font-size="12" fill="#e0e9f6"><title>r:rcx i:-0x8000000000000000</title>0x53e2f  ⋈  movabs  r:rcx i:-0x8000000000000000</text><text x="235" y="2441" font-size="12" fill="#e0e9f6"><title>m:rdx::1:0x10:8 r:rcx</title>0x53e39  ⊤  cmp  m:rdx::1:0x10:8 r:rcx</text><text x="235" y="2459" font-size="12" fill="#e0e9f6"><title>i:0x53e53</title>0x53e3d  ∈  jne  i:0x53e53</text></g><g id="b53e3f"><rect x="220" y="2529" width="900" height="81" rx="6" fill="#1c293a" stroke="#688ab4"/><text x="235" y="2551" fill="#8fceff">block 0x53e3f</text><text x="235" y="2572" font-size="12" fill="#e0e9f6"><title>m:rdx::1:0x18:4 i:0x1</title>0x53e3f  ⊤  cmp  m:rdx::1:0x18:4 i:0x1</text><text x="235" y="2590" font-size="12" fill="#e0e9f6"><title>i:0x53eab</title>0x53e43  ∈  jne  i:0x53eab</text></g><g id="b53e45"><rect x="220" y="2660" width="900" height="117" rx="6" fill="#1c293a" stroke="#688ab4"/><text x="235" y="2682" fill="#8fceff">block 0x53e45</text><text x="235" y="2703" font-size="12" fill="#e0e9f6"><title>r:rdx i:0x20</title>0x53e45  ⊞  add  r:rdx i:0x20</text><text x="235" y="2721" font-size="12" fill="#e0e9f6"><title>r:esi i:0x1</title>0x53e49  ⋈  mov  r:esi i:0x1</text><text x="235" y="2739" font-size="12" fill="#e0e9f6"><title>r:rcx r:rdx</title>0x53e4e  ⋈  mov  r:rcx r:rdx</text><text x="235" y="2757" font-size="12" fill="#e0e9f6"><title>i:0x53e5b</title>0x53e51  ≺  jmp  i:0x53e5b</text></g><g id="b53e53"><rect x="220" y="2827" width="900" height="81" rx="6" fill="#1c293a" stroke="#688ab4"/><text x="235" y="2849" fill="#8fceff">block 0x53e53</text><text x="235" y="2870" font-size="12" fill="#e0e9f6"><title>r:rcx m:rdx::1:0x18:8</title>0x53e53  ⋈  mov  r:rcx m:rdx::1:0x18:8</text><text x="235" y="2888" font-size="12" fill="#e0e9f6"><title>r:rsi m:rdx::1:0x20:8</title>0x53e57  ⋈  mov  r:rsi m:rdx::1:0x20:8</text></g><g id="b53e5b"><rect x="220" y="2958" width="900" height="135" rx="6" fill="#1c293a" stroke="#688ab4"/><text x="235" y="2980" fill="#8fceff">block 0x53e5b</text><text x="235" y="3001" font-size="12" fill="#e0e9f6"><title>r:rax i:-0x2</title>0x53e5b  ⊞  add  r:rax i:-0x2</text><text x="235" y="3019" font-size="12" fill="#e0e9f6"><title>r:rdx r:rax</title>0x53e5f  ⋈  mov  r:rdx r:rax</text><text x="235" y="3037" font-size="12" fill="#e0e9f6"><title>r:rdx i:0x6</title>0x53e62  ⊞  shr  r:rdx i:0x6</text><text x="235" y="3055" font-size="12" fill="#e0e9f6"><title>r:rdx r:rsi</title>0x53e66  ⊤  cmp  r:rdx r:rsi</text><text x="235" y="3073" font-size="12" fill="#e0e9f6"><title>i:0x53eab</title>0x53e69  ∈  jae  i:0x53eab</text></g><g id="b53e6b"><rect x="220" y="3143" width="900" height="99" rx="6" fill="#1c293a" stroke="#688ab4"/><text x="235" y="3165" fill="#8fceff">block 0x53e6b</text><text x="235" y="3186" font-size="12" fill="#e0e9f6"><title>r:rcx m:rcx:rdx:8:0x0:8</title>0x53e6b  ⋈  mov  r:rcx m:rcx:rdx:8:0x0:8</text><text x="235" y="3204" font-size="12" fill="#e0e9f6"><title>r:rcx r:rax</title>0x53e6f  ⊞  bt  r:rcx r:rax</text><text x="235" y="3222" font-size="12" fill="#e0e9f6"><title>i:0x53eab</title>0x53e73  ∈  jae  i:0x53eab</text></g><g id="b53e75"><rect x="220" y="3292" width="900" height="81" rx="6" fill="#1c293a" stroke="#688ab4"/><text x="235" y="3314" fill="#8fceff">block 0x53e75</text><text x="235" y="3335" font-size="12" fill="#e0e9f6"><title>r:r15</title>0x53e75  ⊞  inc  r:r15</text><text x="235" y="3353" font-size="12" fill="#e0e9f6"><title>i:0x53e0c</title>0x53e78  ≺  jmp  i:0x53e0c</text></g><g id="b53e7a"><rect x="220" y="3423" width="900" height="135" rx="6" fill="#1c293a" stroke="#688ab4"/><text x="235" y="3445" fill="#8fceff">block 0x53e7a</text><text x="235" y="3466" font-size="12" fill="#e0e9f6"><title>r:rax m:rsp::1:0x28:8</title>0x53e7a  ⋈  mov  r:rax m:rsp::1:0x28:8</text><text x="235" y="3484" font-size="12" fill="#e0e9f6"><title>r:rax i:0x1818</title>0x53e7f  ⊤  cmp  r:rax i:0x1818</text><text x="235" y="3502" font-size="12" fill="#e0e9f6"><title>r:r15 m:rsp::1:0x8:8</title>0x53e85  ⋈  mov  r:r15 m:rsp::1:0x8:8</text><text x="235" y="3520" font-size="12" fill="#e0e9f6"><title>r:rcx m:rsp::1:0x20:8</title>0x53e8a  ⋈  mov  r:rcx m:rsp::1:0x20:8</text><text x="235" y="3538" font-size="12" fill="#e0e9f6"><title>i:0x53dde</title>0x53e8f  ∈  jne  i:0x53dde</text></g><g id="b53e95"><rect x="220" y="3608" width="900" height="117" rx="6" fill="#1c293a" stroke="#688ab4"/><text x="235" y="3630" fill="#8fceff">block 0x53e95</text><text x="235" y="3651" font-size="12" fill="#e0e9f6"><title>r:rax m:rsp::1:0x0:8</title>0x53e95  ⋈  mov  r:rax m:rsp::1:0x0:8</text><text x="235" y="3669" font-size="12" fill="#e0e9f6"><title>r:rcx i:-0x8000000000000000</title>0x53e99  ⋈  movabs  r:rcx i:-0x8000000000000000</text><text x="235" y="3687" font-size="12" fill="#e0e9f6"><title>m:rax::1:0x0:8 r:rcx</title>0x53ea3  ⋈  mov  m:rax::1:0x0:8 r:rcx</text><text x="235" y="3705" font-size="12" fill="#e0e9f6"><title>i:0x5403e</title>0x53ea6  ≺  jmp  i:0x5403e</text></g><g id="b53eab"><rect x="220" y="3775" width="900" height="225" rx="6" fill="#1c293a" stroke="#688ab4"/><text x="235" y="3797" fill="#8fceff">block 0x53eab</text><text x="235" y="3818" font-size="12" fill="#e0e9f6"><title>r:r14 m:rsp::1:0x68:8</title>0x53eab  ⊞  lea  r:r14 m:rsp::1:0x68:8</text><text x="235" y="3836" font-size="12" fill="#e0e9f6"><title>r:rax m:rsp::1:0x10:8</title>0x53eb0  ⋈  mov  r:rax m:rsp::1:0x10:8</text><text x="235" y="3854" font-size="12" fill="#e0e9f6"><title>m:r14::1:0x0:8 r:rax</title>0x53eb5  ⋈  mov  m:r14::1:0x0:8 r:rax</text><text x="235" y="3872" font-size="12" fill="#e0e9f6"><title>r:rbx i:0x4000000000</title>0x53eb8  ⋈  movabs  r:rbx i:0x4000000000</text><text x="235" y="3890" font-size="12" fill="#e0e9f6"><title>r:rsi m:rsp::1:0x30:8</title>0x53ec2  ⊞  lea  r:rsi m:rsp::1:0x30:8</text><text x="235" y="3908" font-size="12" fill="#e0e9f6"><title>m:rsi::1:0x8:8 r:rbx</title>0x53ec7  ⋈  mov  m:rsi::1:0x8:8 r:rbx</text><text x="235" y="3926" font-size="12" fill="#e0e9f6"><title>m:rsi::1:0x0:8 r:r14</title>0x53ecb  ⋈  mov  m:rsi::1:0x0:8 r:r14</text><text x="235" y="3944" font-size="12" fill="#e0e9f6"><title>r:r12 m:rsp::1:0x88:8</title>0x53ece  ⊞  lea  r:r12 m:rsp::1:0x88:8</text><text x="235" y="3962" font-size="12" fill="#e0e9f6"><title>r:rdi r:r12</title>0x53ed6  ⋈  mov  r:rdi r:r12</text><text x="235" y="3980" font-size="12" fill="#e0e9f6"><title>i:0x3328a</title>0x53ed9  ≻  call  i:0x3328a</text></g><g id="b53ede"><rect x="220" y="4050" width="900" height="225" rx="6" fill="#1c293a" stroke="#688ab4"/><text x="235" y="4072" fill="#8fceff">block 0x53ede</text><text x="235" y="4093" font-size="12" fill="#e0e9f6"><title>r:rbp m:r12::1:0x0:8</title>0x53ede  ⋈  mov  r:rbp m:r12::1:0x0:8</text><text x="235" y="4111" font-size="12" fill="#e0e9f6"><title>r:r13 m:r12::1:0x8:8</title>0x53ee2  ⋈  mov  r:r13 m:r12::1:0x8:8</text><text x="235" y="4129" font-size="12" fill="#e0e9f6"><title>r:rdx m:r12::1:0x10:8</title>0x53ee7  ⋈  mov  r:rdx m:r12::1:0x10:8</text><text x="235" y="4147" font-size="12" fill="#e0e9f6"><title>r:rax m:rdx:r13:1:0x0:8</title>0x53eec  ⊞  lea  r:rax m:rdx:r13:1:0x0:8</text><text x="235" y="4165" font-size="12" fill="#e0e9f6"><title>r:rdx r:rdx</title>0x53ef0  ⊤  test  r:rdx r:rdx</text><text x="235" y="4183" font-size="12" fill="#e0e9f6"><title>r:cl</title>0x53ef3  ⊥  sete  r:cl</text><text x="235" y="4201" font-size="12" fill="#e0e9f6"><title>r:rax</title>0x53ef6  ⊞  dec  r:rax</text><text x="235" y="4219" font-size="12" fill="#e0e9f6"><title>r:sil</title>0x53ef9  ⊥  sete  r:sil</text><text x="235" y="4237" font-size="12" fill="#e0e9f6"><title>r:sil r:cl</title>0x53efd  ⊞  or  r:sil r:cl</text><text x="235" y="4255" font-size="12" fill="#e0e9f6"><title>i:0x53f27</title>0x53f00  ∈  jne  i:0x53f27</text></g><g id="b53f02"><rect x="220" y="4325" width="900" height="81" rx="6" fill="#1c293a" stroke="#688ab4"/><text x="235" y="4347" fill="#8fceff">block 0x53f02</text><text x="235" y="4368" font-size="12" fill="#e0e9f6"><title>m:rax::1:0x0:1 i:0x0</title>0x53f02  ⊤  cmp  m:rax::1:0x0:1 i:0x0</text><text x="235" y="4386" font-size="12" fill="#e0e9f6"><title>i:0x53f27</title>0x53f05  ∈  jne  i:0x53f27</text></g><g id="b53f07"><rect x="220" y="4456" width="900" height="81" rx="6" fill="#1c293a" stroke="#688ab4"/><text x="235" y="4478" fill="#8fceff">block 0x53f07</text><text x="235" y="4499" font-size="12" fill="#e0e9f6"><title>r:rdx</title>0x53f07  ⊞  dec  r:rdx</text><text x="235" y="4517" font-size="12" fill="#e0e9f6"><title>r:rax r:rdx</title>0x53f0a  ⋈  mov  r:rax r:rdx</text></g><g id="b53f0d"><rect x="220" y="4587" width="900" height="99" rx="6" fill="#1c293a" stroke="#688ab4"/><text x="235" y="4609" fill="#8fceff">block 0x53f0d</text><text x="235" y="4630" font-size="12" fill="#e0e9f6"><title>r:rdx r:rax</title>0x53f0d  ⋈  mov  r:rdx r:rax</text><text x="235" y="4648" font-size="12" fill="#e0e9f6"><title>r:rax i:0x1</title>0x53f10  ⊞  sub  r:rax i:0x1</text><text x="235" y="4666" font-size="12" fill="#e0e9f6"><title>i:0x53f27</title>0x53f14  ∈  jb  i:0x53f27</text></g><g id="b53f16"><rect x="220" y="4736" width="900" height="117" rx="6" fill="#1c293a" stroke="#688ab4"/><text x="235" y="4758" fill="#8fceff">block 0x53f16</text><text x="235" y="4779" font-size="12" fill="#e0e9f6"><title>r:rcx m:rdx:r13:1:0x0:8</title>0x53f16  ⊞  lea  r:rcx m:rdx:r13:1:0x0:8</text><text x="235" y="4797" font-size="12" fill="#e0e9f6"><title>r:rcx</title>0x53f1a  ⊞  dec  r:rcx</text><text x="235" y="4815" font-size="12" fill="#e0e9f6"><title>r:rcx r:rcx</title>0x53f1d  ⊤  test  r:rcx r:rcx</text><text x="235" y="4833" font-size="12" fill="#e0e9f6"><title>i:0x53f27</title>0x53f20  ∈  je  i:0x53f27</text></g><g id="b53f22"><rect x="220" y="4903" width="900" height="81" rx="6" fill="#1c293a" stroke="#688ab4"/><text x="235" y="4925" fill="#8fceff">block 0x53f22</text><text x="235" y="4946" font-size="12" fill="#e0e9f6"><title>m:rcx::1:0x0:1 i:0x0</title>0x53f22  ⊤  cmp  m:rcx::1:0x0:1 i:0x0</text><text x="235" y="4964" font-size="12" fill="#e0e9f6"><title>i:0x53f0d</title>0x53f25  ∈  je  i:0x53f0d</text></g><g id="b53f27"><rect x="220" y="5034" width="900" height="117" rx="6" fill="#1c293a" stroke="#688ab4"/><text x="235" y="5056" fill="#8fceff">block 0x53f27</text><text x="235" y="5077" font-size="12" fill="#e0e9f6"><title>r:r12 m:rsp::1:0x50:8</title>0x53f27  ⊞  lea  r:r12 m:rsp::1:0x50:8</text><text x="235" y="5095" font-size="12" fill="#e0e9f6"><title>r:rdi r:r12</title>0x53f2c  ⋈  mov  r:rdi r:r12</text><text x="235" y="5113" font-size="12" fill="#e0e9f6"><title>r:rsi r:r13</title>0x53f2f  ⋈  mov  r:rsi r:r13</text><text x="235" y="5131" font-size="12" fill="#e0e9f6"><title>i:0x3dca1</title>0x53f32  ≻  call  i:0x3dca1</text></g><g id="b53f37"><rect x="220" y="5201" width="900" height="99" rx="6" fill="#1c293a" stroke="#688ab4"/><text x="235" y="5223" fill="#8fceff">block 0x53f37</text><text x="235" y="5244" font-size="12" fill="#e0e9f6"><title>r:rdi r:rbp</title>0x53f37  ⋈  mov  r:rdi r:rbp</text><text x="235" y="5262" font-size="12" fill="#e0e9f6"><title>r:rsi r:r13</title>0x53f3a  ⋈  mov  r:rsi r:r13</text><text x="235" y="5280" font-size="12" fill="#e0e9f6"><title>i:0x5e47f</title>0x53f3d  ≻  call  i:0x5e47f</text></g><g id="b53f42"><rect x="220" y="5350" width="900" height="207" rx="6" fill="#1c293a" stroke="#688ab4"/><text x="235" y="5372" fill="#8fceff">block 0x53f42</text><text x="235" y="5393" font-size="12" fill="#e0e9f6"><title>r:rax m:rsp::1:0x80:8</title>0x53f42  ⊞  lea  r:rax m:rsp::1:0x80:8</text><text x="235" y="5411" font-size="12" fill="#e0e9f6"><title>m:rax::1:0x0:8 r:r15</title>0x53f4a  ⋈  mov  m:rax::1:0x0:8 r:r15</text><text x="235" y="5429" font-size="12" fill="#e0e9f6"><title>r:r15 m:rsp::1:0x30:8</title>0x53f4d  ⊞  lea  r:r15 m:rsp::1:0x30:8</text><text x="235" y="5447" font-size="12" fill="#e0e9f6"><title>m:r15::1:0x8:8 r:rbx</title>0x53f52  ⋈  mov  m:r15::1:0x8:8 r:rbx</text><text x="235" y="5465" font-size="12" fill="#e0e9f6"><title>m:r15::1:0x0:8 r:rax</title>0x53f56  ⋈  mov  m:r15::1:0x0:8 r:rax</text><text x="235" y="5483" font-size="12" fill="#e0e9f6"><title>r:rbx m:rsp::1:0x88:8</title>0x53f59  ⊞  lea  r:rbx m:rsp::1:0x88:8</text><text x="235" y="5501" font-size="12" fill="#e0e9f6"><title>r:rdi r:rbx</title>0x53f61  ⋈  mov  r:rdi r:rbx</text><text x="235" y="5519" font-size="12" fill="#e0e9f6"><title>r:rsi r:r15</title>0x53f64  ⋈  mov  r:rsi r:r15</text><text x="235" y="5537" font-size="12" fill="#e0e9f6"><title>i:0x3328a</title>0x53f67  ≻  call  i:0x3328a</text></g><g id="b53f6c"><rect x="220" y="5607" width="900" height="225" rx="6" fill="#1c293a" stroke="#688ab4"/><text x="235" y="5629" fill="#8fceff">block 0x53f6c</text><text x="235" y="5650" font-size="12" fill="#e0e9f6"><title>r:rbp m:rbx::1:0x0:8</title>0x53f6c  ⋈  mov  r:rbp m:rbx::1:0x0:8</text><text x="235" y="5668" font-size="12" fill="#e0e9f6"><title>r:r13 m:rbx::1:0x8:8</title>0x53f6f  ⋈  mov  r:r13 m:rbx::1:0x8:8</text><text x="235" y="5686" font-size="12" fill="#e0e9f6"><title>r:rdx m:rbx::1:0x10:8</title>0x53f73  ⋈  mov  r:rdx m:rbx::1:0x10:8</text><text x="235" y="5704" font-size="12" fill="#e0e9f6"><title>r:rax m:rdx:r13:1:0x0:8</title>0x53f77  ⊞  lea  r:rax m:rdx:r13:1:0x0:8</text><text x="235" y="5722" font-size="12" fill="#e0e9f6"><title>r:rdx r:rdx</title>0x53f7b  ⊤  test  r:rdx r:rdx</text><text x="235" y="5740" font-size="12" fill="#e0e9f6"><title>r:cl</title>0x53f7e  ⊥  sete  r:cl</text><text x="235" y="5758" font-size="12" fill="#e0e9f6"><title>r:rax</title>0x53f81  ⊞  dec  r:rax</text><text x="235" y="5776" font-size="12" fill="#e0e9f6"><title>r:sil</title>0x53f84  ⊥  sete  r:sil</text><text x="235" y="5794" font-size="12" fill="#e0e9f6"><title>r:sil r:cl</title>0x53f88  ⊞  or  r:sil r:cl</text><text x="235" y="5812" font-size="12" fill="#e0e9f6"><title>i:0x53f93</title>0x53f8b  ∈  je  i:0x53f93</text></g><g id="b53f8d"><rect x="220" y="5882" width="900" height="81" rx="6" fill="#1c293a" stroke="#688ab4"/><text x="235" y="5904" fill="#8fceff">block 0x53f8d</text><text x="235" y="5925" font-size="12" fill="#e0e9f6"><title>r:rbx m:rsp::1:0x0:8</title>0x53f8d  ⋈  mov  r:rbx m:rsp::1:0x0:8</text><text x="235" y="5943" font-size="12" fill="#e0e9f6"><title>i:0x53fbc</title>0x53f91  ≺  jmp  i:0x53fbc</text></g><g id="b53f93"><rect x="220" y="6013" width="900" height="99" rx="6" fill="#1c293a" stroke="#688ab4"/><text x="235" y="6035" fill="#8fceff">block 0x53f93</text><text x="235" y="6056" font-size="12" fill="#e0e9f6"><title>m:rax::1:0x0:1 i:0x0</title>0x53f93  ⊤  cmp  m:rax::1:0x0:1 i:0x0</text><text x="235" y="6074" font-size="12" fill="#e0e9f6"><title>r:rbx m:rsp::1:0x0:8</title>0x53f96  ⋈  mov  r:rbx m:rsp::1:0x0:8</text><text x="235" y="6092" font-size="12" fill="#e0e9f6"><title>i:0x53fbc</title>0x53f9a  ∈  jne  i:0x53fbc</text></g><g id="b53f9c"><rect x="220" y="6162" width="900" height="81" rx="6" fill="#1c293a" stroke="#688ab4"/><text x="235" y="6184" fill="#8fceff">block 0x53f9c</text><text x="235" y="6205" font-size="12" fill="#e0e9f6"><title>r:rdx</title>0x53f9c  ⊞  dec  r:rdx</text><text x="235" y="6223" font-size="12" fill="#e0e9f6"><title>r:rax r:rdx</title>0x53f9f  ⋈  mov  r:rax r:rdx</text></g><g id="b53fa2"><rect x="220" y="6293" width="900" height="99" rx="6" fill="#1c293a" stroke="#688ab4"/><text x="235" y="6315" fill="#8fceff">block 0x53fa2</text><text x="235" y="6336" font-size="12" fill="#e0e9f6"><title>r:rdx r:rax</title>0x53fa2  ⋈  mov  r:rdx r:rax</text><text x="235" y="6354" font-size="12" fill="#e0e9f6"><title>r:rax i:0x1</title>0x53fa5  ⊞  sub  r:rax i:0x1</text><text x="235" y="6372" font-size="12" fill="#e0e9f6"><title>i:0x53fbc</title>0x53fa9  ∈  jb  i:0x53fbc</text></g><g id="b53fab"><rect x="220" y="6442" width="900" height="117" rx="6" fill="#1c293a" stroke="#688ab4"/><text x="235" y="6464" fill="#8fceff">block 0x53fab</text><text x="235" y="6485" font-size="12" fill="#e0e9f6"><title>r:rcx m:rdx:r13:1:0x0:8</title>0x53fab  ⊞  lea  r:rcx m:rdx:r13:1:0x0:8</text><text x="235" y="6503" font-size="12" fill="#e0e9f6"><title>r:rcx</title>0x53faf  ⊞  dec  r:rcx</text><text x="235" y="6521" font-size="12" fill="#e0e9f6"><title>r:rcx r:rcx</title>0x53fb2  ⊤  test  r:rcx r:rcx</text><text x="235" y="6539" font-size="12" fill="#e0e9f6"><title>i:0x53fbc</title>0x53fb5  ∈  je  i:0x53fbc</text></g><g id="b53fb7"><rect x="220" y="6609" width="900" height="81" rx="6" fill="#1c293a" stroke="#688ab4"/><text x="235" y="6631" fill="#8fceff">block 0x53fb7</text><text x="235" y="6652" font-size="12" fill="#e0e9f6"><title>m:rcx::1:0x0:1 i:0x0</title>0x53fb7  ⊤  cmp  m:rcx::1:0x0:1 i:0x0</text><text x="235" y="6670" font-size="12" fill="#e0e9f6"><title>i:0x53fa2</title>0x53fba  ∈  je  i:0x53fa2</text></g><g id="b53fbc"><rect x="220" y="6740" width="900" height="99" rx="6" fill="#1c293a" stroke="#688ab4"/><text x="235" y="6762" fill="#8fceff">block 0x53fbc</text><text x="235" y="6783" font-size="12" fill="#e0e9f6"><title>r:rdi r:r14</title>0x53fbc  ⋈  mov  r:rdi r:r14</text><text x="235" y="6801" font-size="12" fill="#e0e9f6"><title>r:rsi r:r13</title>0x53fbf  ⋈  mov  r:rsi r:r13</text><text x="235" y="6819" font-size="12" fill="#e0e9f6"><title>i:0x3dca1</title>0x53fc2  ≻  call  i:0x3dca1</text></g><g id="b53fc7"><rect x="220" y="6889" width="900" height="99" rx="6" fill="#1c293a" stroke="#688ab4"/><text x="235" y="6911" fill="#8fceff">block 0x53fc7</text><text x="235" y="6932" font-size="12" fill="#e0e9f6"><title>r:rdi r:rbp</title>0x53fc7  ⋈  mov  r:rdi r:rbp</text><text x="235" y="6950" font-size="12" fill="#e0e9f6"><title>r:rsi r:r13</title>0x53fca  ⋈  mov  r:rsi r:r13</text><text x="235" y="6968" font-size="12" fill="#e0e9f6"><title>i:0x5e47f</title>0x53fcd  ≻  call  i:0x5e47f</text></g><g id="b53fd2"><rect x="220" y="7038" width="900" height="315" rx="6" fill="#1c293a" stroke="#688ab4"/><text x="235" y="7060" fill="#8fceff">block 0x53fd2</text><text x="235" y="7081" font-size="12" fill="#e0e9f6"><title>m:rsp::1:0x30:8 r:r12</title>0x53fd2  ⋈  mov  m:rsp::1:0x30:8 r:r12</text><text x="235" y="7099" font-size="12" fill="#e0e9f6"><title>r:rax m:rip::1:-0x252dc:8</title>0x53fd7  ⊞  lea  r:rax m:rip::1:-0x252dc:8</text><text x="235" y="7117" font-size="12" fill="#e0e9f6"><title>m:rsp::1:0x38:8 r:rax</title>0x53fde  ⋈  mov  m:rsp::1:0x38:8 r:rax</text><text x="235" y="7135" font-size="12" fill="#e0e9f6"><title>m:rsp::1:0x40:8 r:r14</title>0x53fe3  ⋈  mov  m:rsp::1:0x40:8 r:r14</text><text x="235" y="7153" font-size="12" fill="#e0e9f6"><title>m:rsp::1:0x48:8 r:rax</title>0x53fe8  ⋈  mov  m:rsp::1:0x48:8 r:rax</text><text x="235" y="7171" font-size="12" fill="#e0e9f6"><title>r:rax m:rip::1:0x5354c:8</title>0x53fed  ⊞  lea  r:rax m:rip::1:0x5354c:8</text><text x="235" y="7189" font-size="12" fill="#e0e9f6"><title>r:rsi m:rsp::1:0x88:8</title>0x53ff4  ⊞  lea  r:rsi m:rsp::1:0x88:8</text><text x="235" y="7207" font-size="12" fill="#e0e9f6"><title>m:rsi::1:0x0:8 r:rax</title>0x53ffc  ⋈  mov  m:rsi::1:0x0:8 r:rax</text><text x="235" y="7225" font-size="12" fill="#e0e9f6"><title>r:eax i:0x2</title>0x53fff  ⋈  mov  r:eax i:0x2</text><text x="235" y="7243" font-size="12" fill="#e0e9f6"><title>m:rsi::1:0x8:8 r:rax</title>0x54004  ⋈  mov  m:rsi::1:0x8:8 r:rax</text><text x="235" y="7261" font-size="12" fill="#e0e9f6"><title>m:rsi::1:0x10:8 r:r15</title>0x54008  ⋈  mov  m:rsi::1:0x10:8 r:r15</text><text x="235" y="7279" font-size="12" fill="#e0e9f6"><title>m:rsi::1:0x18:8 r:rax</title>0x5400c  ⋈  mov  m:rsi::1:0x18:8 r:rax</text><text x="235" y="7297" font-size="12" fill="#e0e9f6"><title>m:rsi::1:0x20:8 i:0x0</title>0x54010  ⋈  mov  m:rsi::1:0x20:8 i:0x0</text><text x="235" y="7315" font-size="12" fill="#e0e9f6"><title>r:rdi r:rbx</title>0x54018  ⋈  mov  r:rdi r:rbx</text><text x="235" y="7333" font-size="12" fill="#e0e9f6"><title>i:0x27570</title>0x5401b  ≻  call  i:0x27570</text></g><g id="b54020"><rect x="220" y="7403" width="900" height="99" rx="6" fill="#1c293a" stroke="#688ab4"/><text x="235" y="7425" fill="#8fceff">block 0x54020</text><text x="235" y="7446" font-size="12" fill="#e0e9f6"><title>r:rdi m:rsp::1:0x68:8</title>0x54020  ⋈  mov  r:rdi m:rsp::1:0x68:8</text><text x="235" y="7464" font-size="12" fill="#e0e9f6"><title>r:rsi m:rsp::1:0x70:8</title>0x54025  ⋈  mov  r:rsi m:rsp::1:0x70:8</text><text x="235" y="7482" font-size="12" fill="#e0e9f6"><title>i:0x5e47f</title>0x5402a  ≻  call  i:0x5e47f</text></g><g id="b5402f"><rect x="220" y="7552" width="900" height="99" rx="6" fill="#1c293a" stroke="#688ab4"/><text x="235" y="7574" fill="#8fceff">block 0x5402f</text><text x="235" y="7595" font-size="12" fill="#e0e9f6"><title>r:rdi m:rsp::1:0x50:8</title>0x5402f  ⋈  mov  r:rdi m:rsp::1:0x50:8</text><text x="235" y="7613" font-size="12" fill="#e0e9f6"><title>r:rsi m:rsp::1:0x58:8</title>0x54034  ⋈  mov  r:rsi m:rsp::1:0x58:8</text><text x="235" y="7631" font-size="12" fill="#e0e9f6"><title>i:0x5e47f</title>0x54039  ≻  call  i:0x5e47f</text></g><g id="b5403e"><rect x="220" y="7701" width="900" height="189" rx="6" fill="#1c293a" stroke="#688ab4"/><text x="235" y="7723" fill="#8fceff">block 0x5403e</text><text x="235" y="7744" font-size="12" fill="#e0e9f6"><title>r:rsp i:0xb8</title>0x5403e  ⊞  add  r:rsp i:0xb8</text><text x="235" y="7762" font-size="12" fill="#e0e9f6"><title>r:rbx</title>0x54045  ⋈  pop  r:rbx</text><text x="235" y="7780" font-size="12" fill="#e0e9f6"><title>r:r12</title>0x54046  ⋈  pop  r:r12</text><text x="235" y="7798" font-size="12" fill="#e0e9f6"><title>r:r13</title>0x54048  ⋈  pop  r:r13</text><text x="235" y="7816" font-size="12" fill="#e0e9f6"><title>r:r14</title>0x5404a  ⋈  pop  r:r14</text><text x="235" y="7834" font-size="12" fill="#e0e9f6"><title>r:r15</title>0x5404c  ⋈  pop  r:r15</text><text x="235" y="7852" font-size="12" fill="#e0e9f6"><title>r:rbp</title>0x5404e  ⋈  pop  r:rbp</text><text x="235" y="7870" font-size="12" fill="#e0e9f6"><title></title>0x5404f  ⊣  ret  </text></g><g id="b54050"><rect x="220" y="7940" width="900" height="117" rx="6" fill="#1c293a" stroke="#688ab4"/><text x="235" y="7962" fill="#8fceff">block 0x54050</text><text x="235" y="7983" font-size="12" fill="#e0e9f6"><title>r:rdx m:rip::1:0x53029:8</title>0x54050  ⊞  lea  r:rdx m:rip::1:0x53029:8</text><text x="235" y="8001" font-size="12" fill="#e0e9f6"><title>r:rdi r:r13</title>0x54057  ⋈  mov  r:rdi r:r13</text><text x="235" y="8019" font-size="12" fill="#e0e9f6"><title>r:rsi r:r12</title>0x5405a  ⋈  mov  r:rsi r:r12</text><text x="235" y="8037" font-size="12" fill="#e0e9f6"><title>i:0x29bff</title>0x5405d  ≻  call  i:0x29bff</text></g><path d="M1120 319 C1150 319,1150 727,1120 727" fill="none" stroke="#ffc467"  marker-end="url(#arrow)"><title>jno</title></path><path d="M1120 319 C1168 319,1168 393,1120 393" fill="none" stroke="#8fceff"  marker-end="url(#arrow)"><title>not-taken</title></path><path d="M1120 468 C1186 468,1186 1318,1120 1318" fill="none" stroke="#ffc467"  marker-end="url(#arrow)"><title>je</title></path><path d="M1120 468 C1204 468,1204 542,1120 542" fill="none" stroke="#8fceff"  marker-end="url(#arrow)"><title>not-taken</title></path><path d="M1120 653 C1222 653,1222 1187,1120 1187" fill="none" stroke="#ffc467"  marker-end="url(#arrow)"><title>jmp</title></path><path d="M1120 928 C1240 928,1240 1318,1120 1318" fill="none" stroke="#ffc467"  marker-end="url(#arrow)"><title>jne</title></path><path d="M1120 928 C1258 928,1258 1002,1120 1002" fill="none" stroke="#8fceff"  marker-end="url(#arrow)"><title>not-taken</title></path><path d="M1120 1113 C1276 1113,1276 1187,1120 1187" fill="none" stroke="#8fceff"  marker-end="url(#arrow)"><title>flow</title></path><path d="M1120 1244 C1294 1244,1294 1318,1120 1318" fill="none" stroke="#8fceff"  marker-end="url(#arrow)"><title>flow</title></path><path d="M1120 1483 C1312 1483,1312 1557,1120 1557" fill="none" stroke="#8fceff"  marker-end="url(#arrow)"><title>flow</title></path><path d="M1120 1758 C1330 1758,1330 1832,1120 1832" fill="none" stroke="#8fceff"  marker-end="url(#arrow)"><title>flow</title></path><path d="M1120 1889 C1348 1889,1348 3435,1120 3435" fill="none" stroke="#ffc467"  marker-end="url(#arrow)"><title>jae</title></path><path d="M1120 1889 C1150 1889,1150 1963,1120 1963" fill="none" stroke="#8fceff"  marker-end="url(#arrow)"><title>not-taken</title></path><path d="M1120 2038 L1160 2038" stroke="#d09bff" marker-end="url(#arrow)"/><text x="1165" y="2042" fill="#d09bff" font-size="11" data-target="55207">call → 0x55207</text><path d="M1120 2038 C1186 2038,1186 2112,1120 2112" fill="none" stroke="#8fceff" stroke-dasharray="6 4" marker-end="url(#arrow)"><title>continuation</title></path><path d="M1120 2169 C1204 2169,1204 7952,1120 7952" fill="none" stroke="#ffc467"  marker-end="url(#arrow)"><title>jae</title></path><path d="M1120 2169 C1222 2169,1222 2243,1120 2243" fill="none" stroke="#8fceff"  marker-end="url(#arrow)"><title>not-taken</title></path><path d="M1120 2300 C1240 2300,1240 3304,1120 3304" fill="none" stroke="#ffc467"  marker-end="url(#arrow)"><title>jne</title></path><path d="M1120 2300 C1258 2300,1258 2374,1120 2374" fill="none" stroke="#8fceff"  marker-end="url(#arrow)"><title>not-taken</title></path><path d="M1120 2467 C1276 2467,1276 2839,1120 2839" fill="none" stroke="#ffc467"  marker-end="url(#arrow)"><title>jne</title></path><path d="M1120 2467 C1294 2467,1294 2541,1120 2541" fill="none" stroke="#8fceff"  marker-end="url(#arrow)"><title>not-taken</title></path><path d="M1120 2598 C1312 2598,1312 3787,1120 3787" fill="none" stroke="#ffc467"  marker-end="url(#arrow)"><title>jne</title></path><path d="M1120 2598 C1330 2598,1330 2672,1120 2672" fill="none" stroke="#8fceff"  marker-end="url(#arrow)"><title>not-taken</title></path><path d="M1120 2765 C1348 2765,1348 2970,1120 2970" fill="none" stroke="#ffc467"  marker-end="url(#arrow)"><title>jmp</title></path><path d="M1120 2896 C1150 2896,1150 2970,1120 2970" fill="none" stroke="#8fceff"  marker-end="url(#arrow)"><title>flow</title></path><path d="M1120 3081 C1168 3081,1168 3787,1120 3787" fill="none" stroke="#ffc467"  marker-end="url(#arrow)"><title>jae</title></path><path d="M1120 3081 C1186 3081,1186 3155,1120 3155" fill="none" stroke="#8fceff"  marker-end="url(#arrow)"><title>not-taken</title></path><path d="M1120 3230 C1204 3230,1204 3787,1120 3787" fill="none" stroke="#ffc467"  marker-end="url(#arrow)"><title>jae</title></path><path d="M1120 3230 C1222 3230,1222 3304,1120 3304" fill="none" stroke="#8fceff"  marker-end="url(#arrow)"><title>not-taken</title></path><path d="M1120 3361 C1240 3361,1240 1832,1120 1832" fill="none" stroke="#ffc467"  marker-end="url(#arrow)"><title>jmp</title></path><path d="M1120 3546 C1258 3546,1258 1557,1120 1557" fill="none" stroke="#ffc467"  marker-end="url(#arrow)"><title>jne</title></path><path d="M1120 3546 C1276 3546,1276 3620,1120 3620" fill="none" stroke="#8fceff"  marker-end="url(#arrow)"><title>not-taken</title></path><path d="M1120 3713 C1294 3713,1294 7713,1120 7713" fill="none" stroke="#ffc467"  marker-end="url(#arrow)"><title>jmp</title></path><path d="M1120 3988 L1160 3988" stroke="#d09bff" marker-end="url(#arrow)"/><text x="1165" y="3992" fill="#d09bff" font-size="11" data-target="3328a">call → 0x3328a</text><path d="M1120 3988 C1330 3988,1330 4062,1120 4062" fill="none" stroke="#8fceff" stroke-dasharray="6 4" marker-end="url(#arrow)"><title>continuation</title></path><path d="M1120 4263 C1348 4263,1348 5046,1120 5046" fill="none" stroke="#ffc467"  marker-end="url(#arrow)"><title>jne</title></path><path d="M1120 4263 C1150 4263,1150 4337,1120 4337" fill="none" stroke="#8fceff"  marker-end="url(#arrow)"><title>not-taken</title></path><path d="M1120 4394 C1168 4394,1168 5046,1120 5046" fill="none" stroke="#ffc467"  marker-end="url(#arrow)"><title>jne</title></path><path d="M1120 4394 C1186 4394,1186 4468,1120 4468" fill="none" stroke="#8fceff"  marker-end="url(#arrow)"><title>not-taken</title></path><path d="M1120 4525 C1204 4525,1204 4599,1120 4599" fill="none" stroke="#8fceff"  marker-end="url(#arrow)"><title>flow</title></path><path d="M1120 4674 C1222 4674,1222 5046,1120 5046" fill="none" stroke="#ffc467"  marker-end="url(#arrow)"><title>jb</title></path><path d="M1120 4674 C1240 4674,1240 4748,1120 4748" fill="none" stroke="#8fceff"  marker-end="url(#arrow)"><title>not-taken</title></path><path d="M1120 4841 C1258 4841,1258 5046,1120 5046" fill="none" stroke="#ffc467"  marker-end="url(#arrow)"><title>je</title></path><path d="M1120 4841 C1276 4841,1276 4915,1120 4915" fill="none" stroke="#8fceff"  marker-end="url(#arrow)"><title>not-taken</title></path><path d="M1120 4972 C1294 4972,1294 4599,1120 4599" fill="none" stroke="#ffc467"  marker-end="url(#arrow)"><title>je</title></path><path d="M1120 4972 C1312 4972,1312 5046,1120 5046" fill="none" stroke="#8fceff"  marker-end="url(#arrow)"><title>not-taken</title></path><path d="M1120 5139 L1160 5139" stroke="#d09bff" marker-end="url(#arrow)"/><text x="1165" y="5143" fill="#d09bff" font-size="11" data-target="3dca1">call → 0x3dca1</text><path d="M1120 5139 C1348 5139,1348 5213,1120 5213" fill="none" stroke="#8fceff" stroke-dasharray="6 4" marker-end="url(#arrow)"><title>continuation</title></path><path d="M1120 5288 L1160 5288" stroke="#d09bff" marker-end="url(#arrow)"/><text x="1165" y="5292" fill="#d09bff" font-size="11" data-target="5e47f">call → 0x5e47f</text><path d="M1120 5288 C1168 5288,1168 5362,1120 5362" fill="none" stroke="#8fceff" stroke-dasharray="6 4" marker-end="url(#arrow)"><title>continuation</title></path><path d="M1120 5545 L1160 5545" stroke="#d09bff" marker-end="url(#arrow)"/><text x="1165" y="5549" fill="#d09bff" font-size="11" data-target="3328a">call → 0x3328a</text><path d="M1120 5545 C1204 5545,1204 5619,1120 5619" fill="none" stroke="#8fceff" stroke-dasharray="6 4" marker-end="url(#arrow)"><title>continuation</title></path><path d="M1120 5820 C1222 5820,1222 6025,1120 6025" fill="none" stroke="#ffc467"  marker-end="url(#arrow)"><title>je</title></path><path d="M1120 5820 C1240 5820,1240 5894,1120 5894" fill="none" stroke="#8fceff"  marker-end="url(#arrow)"><title>not-taken</title></path><path d="M1120 5951 C1258 5951,1258 6752,1120 6752" fill="none" stroke="#ffc467"  marker-end="url(#arrow)"><title>jmp</title></path><path d="M1120 6100 C1276 6100,1276 6752,1120 6752" fill="none" stroke="#ffc467"  marker-end="url(#arrow)"><title>jne</title></path><path d="M1120 6100 C1294 6100,1294 6174,1120 6174" fill="none" stroke="#8fceff"  marker-end="url(#arrow)"><title>not-taken</title></path><path d="M1120 6231 C1312 6231,1312 6305,1120 6305" fill="none" stroke="#8fceff"  marker-end="url(#arrow)"><title>flow</title></path><path d="M1120 6380 C1330 6380,1330 6752,1120 6752" fill="none" stroke="#ffc467"  marker-end="url(#arrow)"><title>jb</title></path><path d="M1120 6380 C1348 6380,1348 6454,1120 6454" fill="none" stroke="#8fceff"  marker-end="url(#arrow)"><title>not-taken</title></path><path d="M1120 6547 C1150 6547,1150 6752,1120 6752" fill="none" stroke="#ffc467"  marker-end="url(#arrow)"><title>je</title></path><path d="M1120 6547 C1168 6547,1168 6621,1120 6621" fill="none" stroke="#8fceff"  marker-end="url(#arrow)"><title>not-taken</title></path><path d="M1120 6678 C1186 6678,1186 6305,1120 6305" fill="none" stroke="#ffc467"  marker-end="url(#arrow)"><title>je</title></path><path d="M1120 6678 C1204 6678,1204 6752,1120 6752" fill="none" stroke="#8fceff"  marker-end="url(#arrow)"><title>not-taken</title></path><path d="M1120 6827 L1160 6827" stroke="#d09bff" marker-end="url(#arrow)"/><text x="1165" y="6831" fill="#d09bff" font-size="11" data-target="3dca1">call → 0x3dca1</text><path d="M1120 6827 C1240 6827,1240 6901,1120 6901" fill="none" stroke="#8fceff" stroke-dasharray="6 4" marker-end="url(#arrow)"><title>continuation</title></path><path d="M1120 6976 L1160 6976" stroke="#d09bff" marker-end="url(#arrow)"/><text x="1165" y="6980" fill="#d09bff" font-size="11" data-target="5e47f">call → 0x5e47f</text><path d="M1120 6976 C1276 6976,1276 7050,1120 7050" fill="none" stroke="#8fceff" stroke-dasharray="6 4" marker-end="url(#arrow)"><title>continuation</title></path><path d="M1120 7341 L1160 7341" stroke="#d09bff" marker-end="url(#arrow)"/><text x="1165" y="7345" fill="#d09bff" font-size="11" data-target="27570">call → 0x27570</text><path d="M1120 7341 C1312 7341,1312 7415,1120 7415" fill="none" stroke="#8fceff" stroke-dasharray="6 4" marker-end="url(#arrow)"><title>continuation</title></path><path d="M1120 7490 L1160 7490" stroke="#d09bff" marker-end="url(#arrow)"/><text x="1165" y="7494" fill="#d09bff" font-size="11" data-target="5e47f">call → 0x5e47f</text><path d="M1120 7490 C1348 7490,1348 7564,1120 7564" fill="none" stroke="#8fceff" stroke-dasharray="6 4" marker-end="url(#arrow)"><title>continuation</title></path><path d="M1120 7639 L1160 7639" stroke="#d09bff" marker-end="url(#arrow)"/><text x="1165" y="7643" fill="#d09bff" font-size="11" data-target="5e47f">call → 0x5e47f</text><path d="M1120 7639 C1168 7639,1168 7713,1120 7713" fill="none" stroke="#8fceff" stroke-dasharray="6 4" marker-end="url(#arrow)"><title>continuation</title></path><path d="M1120 8045 L1160 8045" stroke="#d09bff" marker-end="url(#arrow)"/><text x="1165" y="8049" fill="#d09bff" font-size="11" data-target="29bff">call → 0x29bff</text><path d="M1120 8045 L1160 8045" stroke="#8fceff" marker-end="url(#arrow)"/><text x="1165" y="8049" fill="#8fceff" font-size="11" data-target="54062">continuation → 0x54062</text></svg>
